<?xml version="1.0" encoding="UTF-8"?>
<svg id="_レイヤー_2" data-name="レイヤー_2" xmlns="http://www.w3.org/2000/svg" xmlns:xlink="http://www.w3.org/1999/xlink" viewBox="0 0 241.28 85.96">
  <defs>
    <style>
      .cls-1 {
        fill: #f5aa00;
      }

      .cls-2 {
        fill: #040000;
      }

      .cls-3 {
        fill: url(#_名称未設定グラデーション_139);
      }

      .cls-3, .cls-4 {
        fill-rule: evenodd;
      }

      .cls-4 {
        fill: url(#_名称未設定グラデーション_140);
      }
    </style>
    <linearGradient id="_名称未設定グラデーション_140" data-name="名称未設定グラデーション 140" x1="59.21" y1="47.55" x2="59.21" y2="3.43" gradientUnits="userSpaceOnUse">
      <stop offset=".18" stop-color="#ec6c00"/>
      <stop offset=".43" stop-color="#ef8200"/>
      <stop offset=".8" stop-color="#f5aa00"/>
    </linearGradient>
    <linearGradient id="_名称未設定グラデーション_139" data-name="名称未設定グラデーション 139" x1="25.91" y1="84.67" x2="25.91" y2="40.55" gradientUnits="userSpaceOnUse">
      <stop offset=".11" stop-color="#008bd3"/>
      <stop offset=".33" stop-color="#007ac5"/>
      <stop offset=".78" stop-color="#004ea1"/>
      <stop offset=".91" stop-color="#004096"/>
    </linearGradient>
  </defs>
  <g id="_ヘッダーインデックス" data-name="ヘッダーインデックス">
    <g>
      <path class="cls-4" d="M69.42,46.09c.91-7.37-1.26-14.41-5.5-19.83-3.06-3.91-7.19-6.98-12.02-8.73l-3.19,26.02-11.95-1.47,4.01-32.67.73-5.98,5.98.73c10.67,1.31,19.8,6.82,25.93,14.67,6.13,7.85,9.27,18.04,7.96,28.71l-11.95-1.47h0Z"/>
      <path class="cls-3" d="M15.7,42.02c-.91,7.37,1.26,14.41,5.5,19.83,3.06,3.91,7.19,6.98,12.02,8.73l3.19-26.02,11.95,1.47-4.01,32.67-.73,5.98-5.98-.73c-10.67-1.31-19.8-6.82-25.93-14.67-6.13-7.85-9.27-18.04-7.96-28.71l11.95,1.47h0Z"/>
      <g>
        <path class="cls-2" d="M64.52,85.27l3.85-30.9h6.21l14.22,20.11,2.5-20.11h7.13l-3.8,30.9h-6.21l-14.31-20.2-2.46,20.2h-7.13Z"/>
        <path class="cls-2" d="M108.15,76.23c-.05,1.02.28,2.32.83,3.1.88,1.2,2.13,1.44,3.2,1.44.79,0,1.81-.05,2.64-.6.6-.42,1.16-1.2,1.44-1.85l6.72.56c-.83,2.08-2.27,4.03-3.75,5.14-2.36,1.76-5.19,1.95-7.09,1.95-2.55,0-5.61-.32-8.06-2.78-1.99-1.99-2.59-4.45-2.59-7.23,0-4.54,1.85-7.55,3.57-9.17,2.5-2.36,5.61-2.87,8.2-2.87,3.52,0,6.16,1.11,7.74,2.64,2.78,2.73,2.87,7.23,2.59,9.68h-15.43ZM117.19,72.16c-.09-.97-.6-2.08-1.34-2.69-.74-.6-1.9-.83-2.73-.83-1.62,0-2.59.69-3.15,1.25-.51.56-.97,1.34-1.16,2.27h8.38Z"/>
        <path class="cls-2" d="M148.7,67.11c1.58,1.58,2.78,3.98,2.78,7s-1.16,6.25-3.34,8.48c-2.92,2.96-6.49,3.38-9.5,3.38-2.64,0-5.98-.37-8.62-3.1-1.62-1.67-2.83-4.22-2.83-7.27s1.11-6.02,3.34-8.15c2.27-2.22,5.7-3.52,9.5-3.52,3.33,0,6.62,1.16,8.66,3.2ZM142.91,78.83c1.16-1.11,1.71-2.83,1.71-4.4s-.6-2.83-1.39-3.57c-.88-.83-2.36-1.3-3.61-1.3s-2.64.46-3.71,1.44c-1.25,1.11-1.85,2.83-1.85,4.4,0,1.44.56,2.69,1.34,3.52.65.69,1.81,1.39,3.61,1.39,1.67,0,3.01-.65,3.89-1.48Z"/>
        <path class="cls-2" d="M173.98,61.92c-1.95-1.76-3.8-2.22-5.19-2.22-.88,0-2.13.14-2.92.79-.65.51-1.07,1.39-1.07,2.22,0,.93.42,1.58,1.07,2.08.65.56,1.48.93,3.01,1.62l1.81.83c1.48.69,2.87,1.48,4.08,2.96,1.11,1.39,1.58,2.83,1.58,4.82,0,3.24-1.3,6.11-3.1,7.92-2.5,2.46-5.7,3.01-8.85,3.01-2.27,0-4.08-.28-6.16-1.39-1.53-.83-3.01-2.08-4.12-3.29l3.98-5.1c.65.88,1.67,1.85,2.59,2.46.97.6,2.27,1.02,3.61,1.02,1.07,0,2.55-.32,3.43-.97.83-.65,1.3-1.71,1.3-2.87s-.51-1.76-.88-2.13c-.23-.23-.83-.74-2.46-1.39l-1.81-.74c-.51-.19-2.87-1.2-4.35-2.73s-2.04-3.29-2.04-5.23c0-3.2,1.3-5.51,2.78-7,2.5-2.46,5.7-2.92,8.34-2.92s5.7.51,8.94,3.06l-3.57,5.19Z"/>
        <path class="cls-2" d="M189.46,69.98l-1.9,15.29h-6.67l1.9-15.29h-2.41l.65-5.37h2.41l.83-6.67h6.67l-.83,6.67h4.08l-.65,5.37h-4.08Z"/>
        <path class="cls-2" d="M213.68,64.61h6.67l-2.55,20.66h-6.67l.51-2.36c-.74.88-1.81,1.81-2.92,2.32-1.44.65-3.06.74-3.84.74-2.55,0-4.59-.65-6.39-2.55-1.53-1.62-2.78-4.03-2.78-7.6,0-3.8,1.34-6.86,3.34-8.89,2.13-2.18,4.73-3.01,7.6-3.01,1.2,0,2.69.14,4.03.79.79.37,1.9,1.11,2.83,2.41l.19-2.5ZM204.13,71.18c-.93.93-1.58,2.41-1.58,4.12s.7,2.83,1.34,3.52c.97,1.02,2.18,1.39,3.52,1.39,1.9,0,3.1-.74,3.8-1.39,1.2-1.16,1.76-2.92,1.76-4.45s-.56-2.78-1.44-3.57c-.6-.56-1.67-1.16-3.47-1.16-1.67,0-2.92.51-3.94,1.53Z"/>
        <path class="cls-2" d="M226.41,64.61h6.67l-.6,3.06c.65-1.3,1.62-2.18,2.59-2.73,1.3-.69,2.73-.83,3.47-.83,1.11,0,2.04.14,2.73.32l-1.3,6.21c-.65-.32-1.62-.7-2.92-.7-1.67,0-2.78.65-3.43,1.25-1.16,1.11-1.71,3.06-1.99,5.28l-1.11,8.8h-6.67l2.55-20.66Z"/>
      </g>
      <path class="cls-1" d="M21.03,18.56c2.85-.3,6.87-1.02,12.46-1.78-5.59-.76-9.61-1.48-12.46-1.78,1.8-2.23,4.14-5.59,7.56-10.09-4.49,3.43-7.84,5.77-10.07,7.58-.3-2.85-1.02-6.89-1.77-12.49-.76,5.6-1.48,9.64-1.77,12.49-2.22-1.81-5.58-4.15-10.07-7.58,3.42,4.5,5.75,7.86,7.56,10.09-2.85.3-6.87,1.02-12.46,1.78,5.59.76,9.61,1.48,12.46,1.78-1.8,2.23-4.14,5.59-7.56,10.09,4.49-3.43,7.84-5.77,10.07-7.58.3,2.85,1.02,6.89,1.77,12.49.76-5.6,1.48-9.64,1.77-12.49,2.22,1.81,5.58,4.15,10.07,7.58-3.42-4.5-5.75-7.86-7.56-10.09Z"/>
    </g>
  </g>
</svg>